<svg id="Calque_1" data-name="Calque 1" xmlns="http://www.w3.org/2000/svg" viewBox="0 0 411.44 600"><defs><style>.cls-1{fill:#252525;}.cls-2{fill:#292929;}</style></defs><path d="M34.33,342.86c-.89-11.13-.87-22.4-4.75-34.28-2.56,5,1.23,9.91-1.93,13.27-5.95-2.44-5.11-7.61-5.71-12.29-.25-1.94-.11-4.46-3.58-4.18-1.47.12-1.6-1.86-1.87-3.14-3.11-15-6.85-29.74-6.53-45.3.26-12.61-.84-25.26-1.78-37.86-1.4-18.87,3-37,6.17-55.32s10.54-35,19.37-51A104,104,0,0,1,45.51,95.3c.94-1.09,2.33-1.92,2.46-3.84-1.72-1.32-4.17.2-5.92-1,.08-.38.07-.64.15-.67,14.94-6,25.77-18.1,39.21-26.35,10.24-6.29,20.84-11,33.27-10.36a22.06,22.06,0,0,1,10,2.7c5.47,3.12,11.11,4.92,17.64,3.72,1.54-.29,5.63-2.93,5.77,2.26a9.27,9.27,0,0,0,2.79.35c12.66,0,25.11,2.48,37.73,2.9a26,26,0,0,0,5,0c6.95-1.13,12.37,1.56,16.94,6.51.92,1,1.47.9,2.85.44,2-.66,5.62-.94,6.34.12,2.94,4.34,7.08,2.79,10.82,3.12,5.54.5,11.1.82,17.3,1.26-2.67,1.43-2.79,3.14-1.21,5.11a11.77,11.77,0,0,0,6.05,4.23c12.7,3.35,21.89,11.7,30.26,21.12,7.39,8.29,15.64,16.06,20.43,26.26A105.21,105.21,0,0,1,313.56,183c-.31,7.07-5.44,13.12-7.94,19.8-2.23,6-8.09,10.79-6,18.22.23.83-.81.93-1.42,1.05-4.42.91-5.09,4.38-5.29,8a40.19,40.19,0,0,0,11.67,31.3c3.69,3.84,7.29,7.78,10.74,11.83,5.71,6.72,4.27,14.11-3.47,18.3a16.13,16.13,0,0,1-3.66,1.56c-8.24,2.05-11,6.54-6.72,17.54.55,1.39,1.46,2.64,1.94,4,2.16,6.3.16,9.47-6.39,10.34-.83.1-1.66.18-2.47.34-6.42,1.26-7,2.86-2.93,8,5.06,6.43,4.35,12.5-1.91,17.82-5.16,4.4-8.61,9.51-7.72,16.87,1.41,11.55-4.61,18.24-16.32,18.94a73.3,73.3,0,0,1-30.39-4.4,41.27,41.27,0,0,0-11.63-2.68c-5-.33-8,1.71-8.78,6.73-.71,4.26-1.66,8.49-2.22,12.77A79.69,79.69,0,0,1,203.12,428c-2.67,4.8-4.83,9.88-7.4,14.73-1.89,3.57-1.62,6.84,1.19,9.58,3.19,3.12,4.94,7,6.92,10.86,7.1,13.76,14.45,27.38,21.52,41.15,3.55,6.92,3,8.11-3.82,12.23-5.05,3-5.15,3.16-.64,6.89,2.8,2.31,3.44,4.26.29,6.69-1.31,1-2.41,2.3-3.67,3.38-6.07,5.19-8.12,11.55-5.68,19.25,1.13,3.57.91,7.11.47,10.83a68.77,68.77,0,0,0,3,30c.67,2,1.14,4.15,1.71,6.23q-106.49,0-213,.1c-3.42,0-4.12-.67-4.1-4.1.17-31.32.1-62.64.1-94,8.49-11.9,16-24.4,23.63-36.86,5.71-9.37,11.5-18.67,18.42-27.21,1.36-1.69,2.38-3.13.48-5.15s-.28-3.34,1-4.63c3.8-3.71,7.36-7.76,11.52-11C68.8,406.42,75.67,391.69,81,375.93c-.07-4.2,3.34-5.43,6.51-7.1-2.66-1.36-3.6.54-4.34,1.94-1,1.91-2.1,2.6-4,1.38-1.42-.51-2.45.53-3.62,1-1.06-2.64.48-5.6-1.08-8.3-4.68,6.71-5,6.8-7.41,2.57-1.1.87-.56,2.14-.8,3.2s-.25,1.92-.45,3.58C62.88,370.51,61,367.33,60.9,363c0-2.33.13-5-1.78-7-1.55-.28-.89,2.9-2.91,1.86-.27-4.09.3-8.28-1.58-12.77-3.75,7.37-3.54,15.31-6,23.93-1.62-8.84,3-16.6-.79-23.83l-1.42-.07c-.59,6.15-1.18,12.3-1.81,18.91-.51-2.11.44-5-3.48-3.92-2.24.63-2-2-2-3.56,0-8,0-15.93-.48-24-2.14,3.1-1.83,6.89-2.76,10.31C35.36,343.68,34.84,343.69,34.33,342.86Z"/><path d="M299,599.89c2.2-12.13,6.3-23.76,9.55-35.61,6-21.65,12.29-43.19,17.52-65a38.2,38.2,0,0,0-3.38-27.11c-6.24-12.21-14.24-23.3-22.32-34.27-6.65-9-9.13-18.81-9.38-29.8-.32-14.59.74-28.83,5.58-42.74,1.62-4.67,1.91-9.78,3.06-14.63.64-2.67,1.51-6.72,4.25-6.51a9.36,9.36,0,0,1,8,6.63,11.27,11.27,0,0,0,1.5,3.89c.92-5.11,1.77-10.22,2.77-15.31,2.93-14.89,7.63-29.28,12.08-43.75,1.25-4.06,3.35-7.61,7.1-9.94,3.23-2,6-2.18,7.49,2.05.39,1.07.53,2.55,2,2.45s1.37-1.75,1.69-2.76c1.25-4,2.37-8,3.45-12,.94-3.47,3.33-5.67,6.7-5.8s5.1,2.58,6.2,5.61c1.4,3.9,1.08,7.86.59,11.84-.26,2.07-1.13,4.16.37,6.24,2.37-.77,2.26-3.14,3.29-4.69,1.24-1.89,2.65-3.58,5.15-3.28,2.25.26,3.51,1.94,4.07,3.94,1.44,5.11,3.07,10.24,2.07,15.65-1,5.65,1.07,11.07.76,16.75,2.44-3.07,3.93-7.5,8.69-6.26s5.48,5.57,6.21,9.86c3.6,21,2.68,42,2.32,63.16-.41,23.61-6.18,46.12-11.38,68.73a189.36,189.36,0,0,0-5.12,47.92c.33,12-2.73,23.76-4.42,35.59-2.61,18.26-5.61,36.46-8.4,54.69a31.84,31.84,0,0,0-.07,4.48Z"/><path class="cls-1" d="M56.21,357.86,59.12,356c-1.83,3.45-1.95,7.24-2.91,11.05Z"/><path class="cls-2" d="M34.33,342.86h1.56c-.28,2.74-.57,5.48-.85,8.22h-.71Z"/></svg>