<svg id="Calque_1" data-name="Calque 1" xmlns="http://www.w3.org/2000/svg" viewBox="0 0 456.54 599.89"><defs><style>.cls-1{fill:#171717;}</style></defs><path d="M179.53,599.89c2.51-13,3.89-26.44,7.76-39.07,8.74-28.58,15.63-57.78,27-85.52a118.87,118.87,0,0,0,3.9-11.31c.6-2,.58-4.18-2.51-2.14-1.26.83-2.36.83-2.77-.59-1.88-6.55-4.34-3.48-7.33.79.52-4.73.8-8.15,1.3-11.54.24-1.62.27-3.29-1.18-4s-2.85.38-4,1.41c-4.08,3.67-4.3,8.81-5.09,13.7-.25,1.57-.22,3.19-1.12,4.89q-1.84-7.14-3.72-14.29c-.35-1.35-.09-3.28-2.26-3.28-1.73,0-2.66,1.38-3.27,2.74a44.7,44.7,0,0,1-2.46,5.6,21.29,21.29,0,0,1,.05-4.52c.91-4.18,1.69-8.08-5.57-7.09,3-4.26,6.29-7,7.88-10.87,2-4.94,1.74-5.44-4.13-5.46,4.8-9.75,11.83-18.27,14-29.46-2.89.7-3.59,2.81-5,4.11-2.68,2.49-5.15,5.22-8,7.5-2.09,1.68-4.81,4.88-7.21,2.69-1.71-1.58,1.7-4.06,3-5.88,10.36-14,8.43-33.66,1.7-48-1.85-3.93-5.55-2.58-8.37-1.94-3,.67-1.06,3.28-.86,5.05.3,2.8.8,5.58,1.22,8.37.17,1.76,1.54,3.74-.93,5-1.31-4.29-2.79-8.54-3.88-12.88-.83-3.3-2.78-4.54-5.82-3.74-4.73,1.24-9.3,0-13.86-.65-12.55-1.71-16.92-14.43-15.21-24.64,1.49-8.88-.79-14.05-8.08-18.55-4.67-2.89-5.39-6.2-2.27-10.62a18.5,18.5,0,0,1,1.31-1.5c5.5-6.1,5.5-6.1-1.91-8.71-3.63-1.28-5-4.26-3.17-7.95a57.28,57.28,0,0,0,4-10.7c1.24-4.67-.45-7.75-4.54-9.84a83.37,83.37,0,0,1-8.4-4.36c-7.31-4.9-8.46-11.85-3.11-18.78,3.66-4.73,7.5-9.35,11.45-13.85,10.2-11.63,14-24.87,11.3-40.23s-.89-30.56,3.17-45.43c1.57-5.73,1.84-11-.21-16.5-1.71-4.65-2.65-9.54-3.87-14.52-3.75,5.53-3.28,12.07-3.93,18.18s-.14,12.56-.14,19.85C120.32,148,121.4,144,121,140.75a150.08,150.08,0,0,1-1.39-18.39,35.48,35.48,0,0,1,4.74-18.6c.85-1.43,2-2.86,2.27-4.42,1.59-10,8.76-13.59,17.19-17.14a409.56,409.56,0,0,0,41-20.61c7.23-4.05,15.09-7,22.71-10.32,1.33-.59,3.1-1.28,4.32-.87,5.62,1.89,9.92-1.25,14.53-3.32,10.41-4.66,21.89-4.11,32.74-6.74,6.74-1.64,13.93-1.47,20.67-3.13,5.78-1.42,9.5,3,14.51,3.53,11.43,1.15,21.6,6.24,32.14,10.38,23.66,9.29,41.16,25.84,56,45.73a56.81,56.81,0,0,1,9.46,20.23c1.91,7.6,3.94,15.29,7.7,22.11,8.55,15.52,12.59,32.48,17.13,49.33,7.19,26.66,14.77,53.22,21.63,80,6.17,24,9,48.65,11.18,73.35,1.85,20.88,2.56,41.82,3.64,62.73,1.2,23-11.65,42-37.57,50.66,2.16-3,4.05-5.49,4.45-8.63s-1-3.83-3.4-2.47c-7.18,4.07-14.25,8.34-21.38,12.51-1.91,1.12-2.31,2.26-.32,3.72,15.46,11.34,21.81,28.63,29.19,45.14,10.6,23.7,19.75,48,28.94,72.28.93,2.45,1.39,5.16,3.37,7.13,0,4.33-.11,8.67,0,13,.07,1.75-.31,2.35-2.06,2a13.78,13.78,0,0,0-2.49,0Z"/><path d="M53.56,599.89c-1.74-13.17-3.42-26.35-5.22-39.52-3.43-25-7.32-50-10-75.11-1.27-12-5.06-23.7-8.07-35.46C25.81,432.27,24.1,414,17.21,397.09a8,8,0,0,1-.19-4.9,164,164,0,0,1,5.22-15.6c1.93-4.75,5.46-7.55,11-6.29,1.94.44,2.86.1,3.51-2.11,3.46-11.79,11.2-14.27,21.42-7.06a10.56,10.56,0,0,0,1.7.79c1.15-1.83.33-3.4.09-5a14.37,14.37,0,0,1,9.88-15.49c5.83-1.67,11.55,1.69,14.26,8.74,1.42,3.7,3.29,7.3,3.5,11.39.06,1,.3,2.23,1.46,2.31s1.42-1.18,1.68-2.13c.61-2.24,1.62-4.47,1.72-6.74.88-21.42,4.21-42.72,3.19-64.23a45.89,45.89,0,0,1,.91-10.91c.94-4.8,4.32-7.89,8.4-7.74,4.77.17,5.26,3.74,5.84,7.29,3.54,21.36,6.64,42.88,5.27,64.5-.8,12.67,1.91,24.34,4.5,36.35,1.85,8.57,1.4,17.67,4.86,25.87,3.38,8,3,15.67.35,23.76C124.22,434.73,123.86,440,123,445c-2.22,12.87-8.46,23.77-16.8,33.51-7.08,8.27-9.19,17.52-6.59,27.91,7.8,31.15,17.27,61.82,26.44,92.58a3.91,3.91,0,0,0,.51.85Z"/><path class="cls-1" d="M171.71,376.82l.93-5c1.34,3.47.92,7,.8,11.49A15.1,15.1,0,0,1,171.71,376.82Z"/></svg>